<svg xmlns="http://www.w3.org/2000/svg" width="888" height="1431" viewBox="0 0 888 1431"><g transform="translate(-593 716)"><rect width="888" height="1431" transform="translate(593 -716)" fill="none"/><g transform="translate(138 -18.395)" opacity="0.042"><g transform="translate(754 234.661)"><path d="M25.317,0h-.083a9.476,9.476,0,0,0-7.912,4.331A9.476,9.476,0,0,0,9.411,0H9.327A9.416,9.416,0,0,0,0,9.411,20.272,20.272,0,0,0,3.981,20.462c5.013,6.854,13.341,12.85,13.341,12.85s8.328-6,13.341-12.85A20.272,20.272,0,0,0,34.644,9.411,9.416,9.416,0,0,0,25.317,0Z" transform="translate(289.28 404.323) rotate(-33.007)" fill="#ff4343"/><path d="M49.782,0h-.164A18.633,18.633,0,0,0,34.062,8.515,18.633,18.633,0,0,0,18.5,0h-.164A18.514,18.514,0,0,0,0,18.5c0,6.059,2.653,14.656,7.828,21.731C17.686,53.712,34.062,65.5,34.062,65.5S50.437,53.712,60.3,40.235c5.175-7.074,7.828-15.672,7.828-21.731A18.514,18.514,0,0,0,49.782,0Z" transform="translate(227.924 340.608) rotate(-33.007)" fill="#ff4343"/><path d="M88.863,0h-.292A33.26,33.26,0,0,0,60.8,15.2,33.26,33.26,0,0,0,33.031,0h-.292A33.049,33.049,0,0,0,0,33.031c0,10.816,4.735,26.162,13.973,38.79,17.6,24.057,46.828,45.1,46.828,45.1s29.231-21.047,46.828-45.1c9.237-12.628,13.973-27.974,13.973-38.79A33.049,33.049,0,0,0,88.863,0Z" transform="translate(129.009 241.33) rotate(-33.007)" fill="#ff4343"/><path d="M129.474,0h-.426A48.46,48.46,0,0,0,88.587,22.147,48.46,48.46,0,0,0,48.127,0H47.7A48.152,48.152,0,0,0,0,48.127c0,15.758,6.9,38.118,20.358,56.517C46,139.7,88.587,170.36,88.587,170.36s42.59-30.665,68.229-65.716c13.458-18.4,20.358-40.759,20.358-56.517A48.152,48.152,0,0,0,129.474,0Z" transform="translate(0 96.496) rotate(-33.007)" fill="#ff4343"/></g><g transform="translate(1172.852 130.44) rotate(45)"><path d="M25.317,0h-.083a9.476,9.476,0,0,0-7.912,4.331A9.476,9.476,0,0,0,9.411,0H9.327A9.416,9.416,0,0,0,0,9.411,20.272,20.272,0,0,0,3.981,20.462c5.013,6.854,13.341,12.85,13.341,12.85s8.328-6,13.341-12.85A20.272,20.272,0,0,0,34.644,9.411,9.416,9.416,0,0,0,25.317,0Z" transform="translate(289.28 404.323) rotate(-33.007)" fill="#ff4343"/><path d="M49.782,0h-.164A18.633,18.633,0,0,0,34.062,8.515,18.633,18.633,0,0,0,18.5,0h-.164A18.514,18.514,0,0,0,0,18.5c0,6.059,2.653,14.656,7.828,21.731C17.686,53.712,34.062,65.5,34.062,65.5S50.437,53.712,60.3,40.235c5.175-7.074,7.828-15.672,7.828-21.731A18.514,18.514,0,0,0,49.782,0Z" transform="translate(227.924 340.608) rotate(-33.007)" fill="#ff4343"/><path d="M88.863,0h-.292A33.26,33.26,0,0,0,60.8,15.2,33.26,33.26,0,0,0,33.031,0h-.292A33.049,33.049,0,0,0,0,33.031c0,10.816,4.735,26.162,13.973,38.79,17.6,24.057,46.828,45.1,46.828,45.1s29.231-21.047,46.828-45.1c9.237-12.628,13.973-27.974,13.973-38.79A33.049,33.049,0,0,0,88.863,0Z" transform="translate(129.009 241.33) rotate(-33.007)" fill="#ff4343"/><path d="M129.474,0h-.426A48.46,48.46,0,0,0,88.587,22.147,48.46,48.46,0,0,0,48.127,0H47.7A48.152,48.152,0,0,0,0,48.127c0,15.758,6.9,38.118,20.358,56.517C46,139.7,88.587,170.36,88.587,170.36s42.59-30.665,68.229-65.716c13.458-18.4,20.358-40.759,20.358-56.517A48.152,48.152,0,0,0,129.474,0Z" transform="translate(0 96.496) rotate(-33.007)" fill="#ff4343"/></g><g transform="translate(782.27 554.045) rotate(-30)"><path d="M12.136,0H12.1A4.542,4.542,0,0,0,8.3,2.076,4.542,4.542,0,0,0,4.511,0h-.04A4.514,4.514,0,0,0,0,4.511a9.718,9.718,0,0,0,1.908,5.3,33.441,33.441,0,0,0,6.4,6.16,33.441,33.441,0,0,0,6.4-6.16,9.718,9.718,0,0,0,1.908-5.3A4.514,4.514,0,0,0,12.136,0Z" transform="translate(138.672 193.82) rotate(-33.007)" fill="#ff4343"/><path d="M23.864,0h-.079a8.932,8.932,0,0,0-7.458,4.082A8.932,8.932,0,0,0,8.871,0H8.792A8.875,8.875,0,0,0,0,8.871,19.108,19.108,0,0,0,3.752,19.288C8.478,25.748,16.328,31.4,16.328,31.4s7.85-5.652,12.576-12.113A19.108,19.108,0,0,0,32.656,8.871,8.875,8.875,0,0,0,23.864,0Z" transform="translate(109.26 163.277) rotate(-33.007)" fill="#ff4343"/><path d="M42.6,0h-.14A15.944,15.944,0,0,0,29.146,7.287,15.944,15.944,0,0,0,15.834,0h-.14A15.843,15.843,0,0,0,0,15.834c0,5.185,2.27,12.541,6.7,18.6C15.134,45.961,29.146,56.05,29.146,56.05S43.159,45.961,51.594,34.429c4.428-6.053,6.7-13.41,6.7-18.595A15.843,15.843,0,0,0,42.6,0Z" transform="translate(61.843 115.687) rotate(-33.007)" fill="#ff4343"/><path d="M62.066,0h-.2a23.23,23.23,0,0,0-19.4,10.617A23.23,23.23,0,0,0,23.071,0h-.2A23.083,23.083,0,0,0,0,23.071c0,7.554,3.307,18.273,9.759,27.093,12.291,16.8,32.707,31.5,32.707,31.5s20.416-14.7,32.707-31.5c6.452-8.82,9.759-19.539,9.759-27.093A23.083,23.083,0,0,0,62.066,0Z" transform="translate(0 46.257) rotate(-33.007)" fill="#ff4343"/></g><g transform="translate(1301.729 435.956) rotate(74.991)"><path d="M12.136,0H12.1A4.542,4.542,0,0,0,8.3,2.076,4.542,4.542,0,0,0,4.511,0h-.04A4.514,4.514,0,0,0,0,4.511a9.718,9.718,0,0,0,1.908,5.3,33.441,33.441,0,0,0,6.4,6.16,33.441,33.441,0,0,0,6.4-6.16,9.718,9.718,0,0,0,1.908-5.3A4.514,4.514,0,0,0,12.136,0Z" transform="translate(138.672 193.82) rotate(-33.007)" fill="#ff4343"/><path d="M23.864,0h-.079a8.932,8.932,0,0,0-7.458,4.082A8.932,8.932,0,0,0,8.871,0H8.792A8.875,8.875,0,0,0,0,8.871,19.108,19.108,0,0,0,3.752,19.288C8.478,25.748,16.328,31.4,16.328,31.4s7.85-5.652,12.576-12.113A19.108,19.108,0,0,0,32.656,8.871,8.875,8.875,0,0,0,23.864,0Z" transform="translate(109.26 163.277) rotate(-33.007)" fill="#ff4343"/><path d="M42.6,0h-.14A15.944,15.944,0,0,0,29.146,7.287,15.944,15.944,0,0,0,15.834,0h-.14A15.843,15.843,0,0,0,0,15.834c0,5.185,2.27,12.541,6.7,18.6C15.134,45.961,29.146,56.05,29.146,56.05S43.159,45.961,51.594,34.429c4.428-6.053,6.7-13.41,6.7-18.595A15.843,15.843,0,0,0,42.6,0Z" transform="translate(61.843 115.687) rotate(-33.007)" fill="#ff4343"/><path d="M62.066,0h-.2a23.23,23.23,0,0,0-19.4,10.617A23.23,23.23,0,0,0,23.071,0h-.2A23.083,23.083,0,0,0,0,23.071c0,7.554,3.307,18.273,9.759,27.093,12.291,16.8,32.707,31.5,32.707,31.5s20.416-14.7,32.707-31.5c6.452-8.82,9.759-19.539,9.759-27.093A23.083,23.083,0,0,0,62.066,0Z" transform="translate(0 46.257) rotate(-33.007)" fill="#ff4343"/></g></g></g></svg>